<svg xmlns="http://www.w3.org/2000/svg" viewBox="0 0 100 100" width="100" height="100">
  <title>John Adams</title>
  <circle cx="50" cy="50" r="50" fill="#2d5a27"/>
  <g transform="translate(18.689 68.016) scale(0.05245 -0.05245)" fill="#ffffff">
    <path d="M486 698V202Q486 154 470.5 114.5Q455 75 425.0 47.5Q395 20 352.5 4.5Q310 -11 256 -11Q204 -11 164.5 3.0Q125 17 96.5 43.0Q68 69 50.0 105.0Q32 141 25 185L167 213Q184 122 254 122Q287 122 310.5 143.0Q334 164 334 209V576H122V698Z"/>
    <path transform="translate(504 0)" d="M507 0 457 166H224L174 0H20L250 698H438L665 0ZM342 560H337L260 295H420Z"/>
  </g>
</svg>
